<?xml version="1.0" encoding="UTF-8"?>
<!DOCTYPE svg PUBLIC "-//W3C//DTD SVG 1.1//EN" "http://www.w3.org/Graphics/SVG/1.1/DTD/svg11.dtd">
<!-- Creator: CorelDRAW X6 -->
<svg xmlns="http://www.w3.org/2000/svg" xml:space="preserve" width="49px" height="59px" version="1.1" shape-rendering="geometricPrecision" text-rendering="geometricPrecision" image-rendering="optimizeQuality" fill-rule="evenodd" clip-rule="evenodd"
viewBox="0 0 5196 6226"
 xmlns:xlink="http://www.w3.org/1999/xlink">
 <g id="Слой_x0020_1">
  <metadata id="CorelCorpID_0Corel-Layer"/>
  <polygon fill="white" points="0,0 5196,0 5196,6226 0,6226 "/>
  <path fill="#1464A0" fill-rule="nonzero" d="M514 5143l1094 0c0,-810 0,-1919 0,-3895 0,-304 13,-388 295,-388 687,0 977,610 977,1175 0,341 -47,640 -224,868 445,-173 717,-193 1145,-81 150,-200 247,-460 247,-794 0,-741 -466,-1143 -931,-1320 -321,-121 -748,-192 -1397,-192l-1206 0 0 4628z"/>
  <circle fill="#E00000" cx="3338" cy="4368" r="1344"/>
 </g>
</svg>
